<svg width="46" height="49" viewBox="0 0 46 49" fill="none" xmlns="http://www.w3.org/2000/svg">
<g filter="url(#filter0_d)">
<path d="M29 8H17C16.4477 8 16 8.44772 16 9V24C16 24.5523 16.4477 25 17 25H29C29.5523 25 30 24.5523 30 24V9C30 8.44772 29.5523 8 29 8Z" fill="url(#paint0_linear)"/>
</g>
<path d="M21.0379 12.7051L20.5451 12.1525L21.0379 12.7051ZM21.0379 12.7051L20.6796 13.4496L21.0379 12.7051ZM21.0379 12.7051L21.4795 13.2005L21.4816 13.2028L21.6267 13.3656L21.9693 13.7498L22 13.7842L21.0379 12.7051ZM23.5539 13.9348L23.5045 13.8321L23.5539 13.9348ZM23.5539 13.9348L23.6402 14.1141L23.5539 13.9348ZM24.4556 15.8084L24.4479 15.7924L24.4556 15.8084ZM24.4556 15.8084L24.4621 15.8218L24.4556 15.8084ZM17.0278 21.0375L17.0016 21.092L17.0278 21.0375ZM17.0278 21.0375L17.0016 21.092M17.0278 21.0375L17.0016 21.092M17.0016 21.092L16.996 21.1035L17.0016 21.092ZM23.3204 13.4496L22.9629 12.7068L23.3204 13.4496ZM23.3204 13.4496L23.3491 13.5092L23.3204 13.4496ZM17.4539 20.1522L17.4869 20.0836L17.4539 20.1522Z" fill="black" stroke="black" stroke-width="24"/>
<defs>
<filter id="filter0_d" x="0" y="0" width="46" height="49" filterUnits="userSpaceOnUse" color-interpolation-filters="sRGB">
<feFlood flood-opacity="0" result="BackgroundImageFix"/>
<feColorMatrix in="SourceAlpha" type="matrix" values="0 0 0 0 0 0 0 0 0 0 0 0 0 0 0 0 0 0 127 0"/>
<feOffset dy="8"/>
<feGaussianBlur stdDeviation="8"/>
<feColorMatrix type="matrix" values="0 0 0 0 0.0862745 0 0 0 0 0.0901961 0 0 0 0 0.105882 0 0 0 0.32 0"/>
<feBlend mode="normal" in2="BackgroundImageFix" result="effect1_dropShadow"/>
<feBlend mode="normal" in="SourceGraphic" in2="effect1_dropShadow" result="shape"/>
</filter>
<linearGradient id="paint0_linear" x1="23" y1="8" x2="23" y2="25" gradientUnits="userSpaceOnUse">
<stop stop-color="#86FF0E"/>
<stop offset="1" stop-color="#58C3FF" stop-opacity="0.52"/>
</linearGradient>
</defs>
</svg>
