<svg width="72" height="72" viewBox="0 0 72 72" fill="none" xmlns="http://www.w3.org/2000/svg">
<g filter="url(#filter0_d)">
<path d="M48 36C47.9989 35.3814 47.8059 34.7784 47.4477 34.274C47.0895 33.7697 46.5837 33.3888 46 33.184V29.816C46.4775 29.6482 46.9046 29.3621 47.2414 28.9844C47.5783 28.6067 47.8138 28.1498 47.9261 27.6563C48.0384 27.1629 48.0237 26.649 47.8835 26.1627C47.7432 25.6765 47.482 25.2338 47.1241 24.8759C46.7662 24.518 46.3235 24.2568 45.8372 24.1165C45.351 23.9763 44.8371 23.9616 44.3437 24.0739C43.8502 24.1862 43.3933 24.4217 43.0156 24.7586C42.6379 25.0954 42.3518 25.5225 42.184 26H38.816C38.6124 25.4155 38.2318 24.9088 37.7273 24.5502C37.2227 24.1917 36.619 23.9991 36 23.9991C35.381 23.9991 34.7773 24.1917 34.2727 24.5502C33.7682 24.9088 33.3876 25.4155 33.184 26H29.816C29.6482 25.5225 29.3621 25.0954 28.9844 24.7586C28.6067 24.4217 28.1498 24.1862 27.6563 24.0739C27.1629 23.9616 26.649 23.9763 26.1627 24.1165C25.6765 24.2568 25.2338 24.518 24.8759 24.8759C24.518 25.2338 24.2568 25.6765 24.1165 26.1627C23.9763 26.649 23.9616 27.1629 24.0739 27.6563C24.1862 28.1498 24.4217 28.6067 24.7586 28.9844C25.0954 29.3621 25.5225 29.6482 26 29.816V33.184C25.4155 33.3876 24.9088 33.7682 24.5502 34.2727C24.1917 34.7773 23.9991 35.381 23.9991 36C23.9991 36.619 24.1917 37.2227 24.5502 37.7273C24.9088 38.2318 25.4155 38.6124 26 38.816V42.184C25.5225 42.3518 25.0954 42.6379 24.7586 43.0156C24.4217 43.3933 24.1862 43.8502 24.0739 44.3437C23.9616 44.8371 23.9763 45.351 24.1165 45.8372C24.2568 46.3235 24.518 46.7662 24.8759 47.1241C25.2338 47.482 25.6765 47.7432 26.1627 47.8835C26.649 48.0237 27.1629 48.0384 27.6563 47.9261C28.1498 47.8138 28.6067 47.5783 28.9844 47.2414C29.3621 46.9046 29.6482 46.4775 29.816 46H33.184C33.3876 46.5845 33.7682 47.0912 34.2727 47.4498C34.7773 47.8083 35.381 48.0009 36 48.0009C36.619 48.0009 37.2227 47.8083 37.7273 47.4498C38.2318 47.0912 38.6124 46.5845 38.816 46H42.184C42.3518 46.4775 42.6379 46.9046 43.0156 47.2414C43.3933 47.5783 43.8502 47.8138 44.3437 47.9261C44.8371 48.0384 45.351 48.0237 45.8372 47.8835C46.3235 47.7432 46.7662 47.482 47.1241 47.1241C47.482 46.7662 47.7432 46.3235 47.8835 45.8372C48.0237 45.351 48.0384 44.8371 47.9261 44.3437C47.8138 43.8502 47.5783 43.3933 47.2414 43.0156C46.9046 42.6379 46.4775 42.3518 46 42.184V38.816C46.5837 38.6112 47.0895 38.2303 47.4477 37.726C47.8059 37.2216 47.9989 36.6186 48 36V36ZM44 38.816V42.184C43.152 42.484 42.485 43.152 42.184 44H38.816C38.6124 43.4155 38.2318 42.9088 37.7273 42.5502C37.2227 42.1917 36.619 41.9991 36 41.9991C35.381 41.9991 34.7773 42.1917 34.2727 42.5502C33.7682 42.9088 33.3876 43.4155 33.184 44H29.816C29.6674 43.5813 29.4273 43.201 29.1131 42.8869C28.799 42.5727 28.4187 42.3326 28 42.184V38.816C28.5845 38.6124 29.0912 38.2318 29.4498 37.7273C29.8083 37.2227 30.0009 36.619 30.0009 36C30.0009 35.381 29.8083 34.7773 29.4498 34.2727C29.0912 33.7682 28.5845 33.3876 28 33.184V29.816C28.4187 29.6674 28.799 29.4273 29.1131 29.1131C29.4273 28.799 29.6674 28.4187 29.816 28H33.184C33.3876 28.5845 33.7682 29.0912 34.2727 29.4498C34.7773 29.8083 35.381 30.0009 36 30.0009C36.619 30.0009 37.2227 29.8083 37.7273 29.4498C38.2318 29.0912 38.6124 28.5845 38.816 28H42.184C42.484 28.848 43.152 29.515 44 29.816V33.184C43.4155 33.3876 42.9088 33.7682 42.5502 34.2727C42.1917 34.7773 41.9991 35.381 41.9991 36C41.9991 36.619 42.1917 37.2227 42.5502 37.7273C42.9088 38.2318 43.4155 38.6124 44 38.816V38.816Z" fill="white"/>
<path opacity="0.64" d="M36 39C37.6569 39 39 37.6569 39 36C39 34.3431 37.6569 33 36 33C34.3431 33 33 34.3431 33 36C33 37.6569 34.3431 39 36 39Z" fill="white"/>
</g>
<path d="M37.0042 33H30.9958C30.4458 33 30 33.3344 30 33.7469V38.2531C30 38.6656 30.4458 39 30.9958 39H37.0042C37.5542 39 38 38.6656 38 38.2531V33.7469C38 33.3344 37.5542 33 37.0042 33ZM40.95 33.5891L38.6667 34.7703V37.2297L40.95 38.4094C41.3917 38.6375 42 38.4047 42 38.0062V33.9922C42 33.5953 41.3937 33.3609 40.95 33.5891Z" fill="black"/>
<defs>
<filter id="filter0_d" x="7.99905" y="15.9991" width="56.0017" height="56.0019" filterUnits="userSpaceOnUse" color-interpolation-filters="sRGB">
<feFlood flood-opacity="0" result="BackgroundImageFix"/>
<feColorMatrix in="SourceAlpha" type="matrix" values="0 0 0 0 0 0 0 0 0 0 0 0 0 0 0 0 0 0 127 0"/>
<feOffset dy="8"/>
<feGaussianBlur stdDeviation="8"/>
<feColorMatrix type="matrix" values="0 0 0 0 0.0862745 0 0 0 0 0.0901961 0 0 0 0 0.105882 0 0 0 0.32 0"/>
<feBlend mode="normal" in2="BackgroundImageFix" result="effect1_dropShadow"/>
<feBlend mode="normal" in="SourceGraphic" in2="effect1_dropShadow" result="shape"/>
</filter>
</defs>
</svg>
