<svg width="72" height="72" viewBox="0 0 72 72" fill="none" xmlns="http://www.w3.org/2000/svg">
<g filter="url(#filter0_d)">
<path d="M33.2929 34.2929H26.2929C26.0277 34.2929 25.7733 34.1875 25.5858 34C25.3982 33.8125 25.2929 33.5581 25.2929 33.2929V26.2929C25.2929 26.0277 25.3982 25.7733 25.5858 25.5858C25.7733 25.3982 26.0277 25.2929 26.2929 25.2929H33.2929C33.5581 25.2929 33.8125 25.3982 34 25.5858C34.1875 25.7733 34.2929 26.0277 34.2929 26.2929V33.2929C34.2929 33.5581 34.1875 33.8125 34 34C33.8125 34.1875 33.5581 34.2929 33.2929 34.2929ZM33.2929 47.2929H26.2929C26.0277 47.2929 25.7733 47.1875 25.5858 47C25.3982 46.8125 25.2929 46.5581 25.2929 46.2929V39.2929C25.2929 39.0277 25.3982 38.7733 25.5858 38.5858C25.7733 38.3982 26.0277 38.2929 26.2929 38.2929H33.2929C33.5581 38.2929 33.8125 38.3982 34 38.5858C34.1875 38.7733 34.2929 39.0277 34.2929 39.2929V46.2929C34.2929 46.5581 34.1875 46.8125 34 47C33.8125 47.1875 33.5581 47.2929 33.2929 47.2929ZM37.2929 26.2929H47.2929V28.2929H37.2929V26.2929Z" fill="white"/>
</g>
<path d="M42 34.9032C41.5853 34.9032 41.1799 35.0262 40.8351 35.2566C40.4903 35.487 40.2215 35.8145 40.0628 36.1976C39.9041 36.5807 39.8626 37.0023 39.9435 37.4091C40.0244 37.8158 40.2241 38.1894 40.5174 38.4826C40.8106 38.7759 41.1842 38.9756 41.5909 39.0565C41.9977 39.1374 42.4193 39.0959 42.8024 38.9372C43.1855 38.7785 43.513 38.5097 43.7434 38.1649C43.9738 37.8201 44.0968 37.4147 44.0968 37C44.0968 36.4439 43.8759 35.9106 43.4826 35.5174C43.0894 35.1241 42.5561 34.9032 42 34.9032ZM42 37.4839C41.9043 37.4839 41.8107 37.4555 41.7312 37.4023C41.6516 37.3492 41.5896 37.2736 41.553 37.1852C41.5163 37.0968 41.5068 36.9995 41.5254 36.9056C41.5441 36.8117 41.5902 36.7255 41.6579 36.6579C41.7255 36.5902 41.8117 36.5441 41.9056 36.5254C41.9995 36.5068 42.0968 36.5163 42.1852 36.553C42.2736 36.5896 42.3492 36.6516 42.4023 36.7312C42.4555 36.8107 42.4839 36.9043 42.4839 37C42.4839 37.1283 42.4329 37.2514 42.3421 37.3421C42.2514 37.4329 42.1283 37.4839 42 37.4839ZM42 32C39.2379 32 37 34.2379 37 37C37 39.7621 39.2379 42 42 42C44.7621 42 47 39.7621 47 37C47 34.2379 44.7621 32 42 32ZM42 39.5806C41.4896 39.5806 40.9907 39.4293 40.5663 39.1457C40.1419 38.8622 39.8111 38.4591 39.6158 37.9876C39.4205 37.516 39.3694 36.9971 39.4689 36.4965C39.5685 35.9959 39.8143 35.5361 40.1752 35.1752C40.5361 34.8143 40.9959 34.5685 41.4965 34.4689C41.9971 34.3694 42.516 34.4205 42.9876 34.6158C43.4591 34.8111 43.8622 35.1419 44.1457 35.5663C44.4293 35.9907 44.5806 36.4896 44.5806 37C44.5806 37.6844 44.3088 38.3408 43.8248 38.8248C43.3408 39.3088 42.6844 39.5806 42 39.5806Z" fill="#FF5C00"/>
<defs>
<filter id="filter0_d" x="9.29289" y="17.2929" width="54" height="54" filterUnits="userSpaceOnUse" color-interpolation-filters="sRGB">
<feFlood flood-opacity="0" result="BackgroundImageFix"/>
<feColorMatrix in="SourceAlpha" type="matrix" values="0 0 0 0 0 0 0 0 0 0 0 0 0 0 0 0 0 0 127 0"/>
<feOffset dy="8"/>
<feGaussianBlur stdDeviation="8"/>
<feColorMatrix type="matrix" values="0 0 0 0 0.0862745 0 0 0 0 0.0901961 0 0 0 0 0.105882 0 0 0 0.32 0"/>
<feBlend mode="normal" in2="BackgroundImageFix" result="effect1_dropShadow"/>
<feBlend mode="normal" in="SourceGraphic" in2="effect1_dropShadow" result="shape"/>
</filter>
</defs>
</svg>
