<svg width="433" height="493" viewBox="0 0 433 493" fill="none" xmlns="http://www.w3.org/2000/svg">
<g clip-path="url(#clip0)">
<path d="M377.11 1.81561C375.23 1.80001 373.31 1.90881 371.35 2.15001C290.53 11.19 225.44 65.7 165.41 115.77C127.28 117.73 88.021 117.12 51.35 129.34C38.63 133.38 25.089 142.58 25.259 157.39C25.039 189.14 43.47 218.989 68 238.109C64.81 247.059 55.67 254.729 58.9297 264.959C59.1697 272.669 63.0294 279.609 67.1094 285.929C59.0894 296.199 51.5404 313.409 63.2906 323.759C70.0006 330.699 76.7396 337.82 84.8796 343.12C107.25 363.14 133.421 378.8 158.021 396C170.741 406.49 182.39 392.41 189.81 382.85C205.67 397.76 229.33 397.991 243.11 380.341C267.35 397.501 296.07 415.001 327.13 411.371C345.83 407.431 352.59 386.421 354.8 369.821C358.91 332.761 351.37 295.641 344.12 259.451C365.72 228.021 388.98 197.691 409.44 165.451C430.04 133.551 434.91 93.3196 428.59 56.4106C424.81 30.1886 405.34 2.05061 377.11 1.81661L377.11 1.81561ZM65.37 361.346C47.857 361.148 26.914 367.53 19.336 384.374C18.056 388.264 24.0554 388.604 26.7454 388.694C27.2854 391.524 30.1651 393.063 31.9251 395.153C22.9351 413.303 10.8651 430.764 8.07511 451.264C3.50511 460.794 2.07571 479.074 2.86571 489.684C15.5757 483.954 31.0557 480.964 42.9957 474.864C60.6757 471.554 79.1667 463.963 88.8367 447.853C102.607 460.163 116.746 438.855 119.976 426.884C122.046 408.944 121.447 382.753 103.387 372.603C99.0073 366.144 91.8017 362.814 84.2007 362.613C82.4467 362.566 80.6716 362.687 78.9054 362.974C74.9088 361.972 70.2745 361.401 65.3714 361.346L65.37 361.346Z" fill="#FC9A67"/>
<path d="M377.11 1.81561C375.23 1.80001 373.31 1.90881 371.35 2.15001C290.53 11.19 225.44 65.7 165.41 115.77C127.28 117.73 88.021 117.12 51.35 129.34C38.63 133.38 25.089 142.58 25.259 157.39C25.039 189.14 43.47 218.989 68 238.109C64.81 247.059 55.67 254.729 58.9297 264.959C61.6597 271.639 74.6197 278.449 67.1094 285.929C59.0894 296.199 51.5404 313.409 63.2906 323.759C70.0006 330.699 76.7396 337.82 84.8796 343.12C108.83 359.43 135.56 371.119 159.21 387.929C162.43 390.879 166.92 391.819 171.08 390.509C179.18 389.669 182.09 373.25 189.81 382.849C205.67 397.759 229.33 397.99 243.11 380.34C267.35 397.5 296.07 415 327.13 411.37C345.83 407.43 352.59 386.42 354.8 369.82C358.91 332.76 351.37 295.64 344.12 259.45C365.72 228.02 388.98 197.69 409.44 165.45C430.04 133.55 434.91 93.3189 428.59 56.4099C424.81 30.1879 405.34 2.04991 377.11 1.81591L377.11 1.81561ZM374.01 10.1031C386.603 10.0867 398.923 16.4565 406.649 26.3701C422.519 47.5301 423.678 75.8701 421.358 101.2C406.028 64.8701 380.449 31.6011 343.789 15.0411C351.969 13.1211 360.228 11.3199 368.608 10.5099C370.406 10.2387 372.211 10.106 374.01 10.1037L374.01 10.1031ZM330.933 20.8481C343.654 21.1762 356.216 31.4721 365.899 39.1291C388.849 55.3891 404.1 81.0391 413.99 106.949C424.83 121.319 412.46 139.498 406.62 153.608C369.77 210.248 329.499 264.608 286.98 317.018C233.96 268.468 161.07 242.767 118.29 183.078C141.48 154.898 165.349 126.908 193.259 103.258C233.749 75.1881 271.079 41.3181 318.259 24.3081C322.434 21.7356 326.693 20.7378 330.934 20.8472L330.933 20.8481ZM283.489 78.2281C280.509 78.193 277.553 78.2844 274.639 78.5C223.029 83.06 187.448 143.7 202.098 191.87C214.278 229.11 259.517 253.67 296.807 238.77C316.537 228.73 334.827 214.93 347.807 196.8C362.747 173.25 365.507 142.59 358.047 116.13C343.227 90.7 312.287 78.568 283.487 78.228L283.489 78.2281ZM279.259 86.4468C306.494 86.1198 338.214 96.1215 351.428 121.61C356.928 148.61 353.479 180.001 333.989 200.991C322.049 214.031 307.098 224.49 291.198 232.16C250.418 245.89 202.428 208.381 206.968 165.191C209.848 128.411 237.358 89.0498 276.638 86.5098C277.507 86.4779 278.38 86.4579 279.259 86.4473L279.259 86.4468ZM269.469 100.6C264.499 100.629 259.258 102.64 254.983 104.94C230.943 118.53 213.183 145.799 213.033 173.679C211.533 183.709 221.103 191.689 230.783 189.329C238.853 187.459 235.423 176.32 237.613 170.59C238.173 156.45 247.913 144.759 259.633 137.799C261.433 136.519 263.313 135.369 265.183 134.199C275.453 129.199 291.104 116.649 279.994 104.919C277.036 101.752 273.334 100.576 269.469 100.599L269.469 100.6ZM269.874 105.459C283.944 105.949 278.414 123.119 268.904 126.009C248.344 135.629 229.314 154.13 232.034 178.77C232.164 191.09 214.074 181.841 217.504 172.641C220.104 143.651 239.784 111.61 269.874 105.46L269.874 105.459ZM154.204 124.969C155.484 125.029 156.765 125.189 158.045 125.369C134.025 149.069 112.844 175.428 92.2536 202.108C91.7636 204.568 89.7739 205.989 88.2739 207.779C82.5439 214.369 79.2042 224.249 72.9939 229.729C55.6139 220.039 45.5739 200.929 37.8739 183.179C33.2839 169.839 29.0742 149.269 45.0942 141.949C78.6152 125.029 117.704 126.849 154.204 124.969L154.204 124.969ZM114.924 187.889C134.714 213.899 160.434 234.429 187.144 252.869C213.484 270.659 242.404 285.659 265.944 307.089C271.904 311.159 279.204 315.968 282.774 321.878C269.164 340.438 253.244 357.588 237.094 374.058C230.244 379.468 222.253 389.988 212.413 385.728C194.353 378.498 179.213 365.769 163.833 354.169C131.603 327.989 99.914 300.788 72.274 269.728C65.564 264.668 66.5034 256.169 70.9834 250.089C83.7134 228.139 98.2844 207.019 114.924 187.889H114.924ZM248.394 192.438C246.945 192.44 245.401 192.718 243.785 193.328C228.915 197.828 246.295 228.369 256.785 213.789C264.012 205.923 258.538 192.421 248.394 192.437V192.438ZM247.672 197.753C254.598 197.453 257.425 205.831 252.975 211.169C246.635 215.289 238.985 202.14 245.396 198.139C246.196 197.91 246.956 197.784 247.672 197.753V197.753ZM90.6021 248.253C76.8921 248.208 86.7709 273.686 99.0146 267.33C105.575 260.94 102.615 250.699 93.6646 248.619C92.5346 248.372 91.5161 248.257 90.6021 248.254V248.253ZM92.7615 253.903C96.5005 254.22 100.35 258.705 95.7756 260.898C91.8456 265.378 85.8059 256.98 90.2959 254.43C91.0422 253.98 91.8987 253.83 92.7615 253.903V253.903ZM336.672 268.483C338.142 268.315 337.932 272.979 338.257 274.58C343.957 312.99 357.658 358.759 337.048 393.97C335.638 398.29 331.018 401.191 326.728 402.131C302.518 407.411 275.127 392.051 254.737 377.831C252.377 377.001 250.247 375.401 249.107 373.131C280.977 341.331 307.917 305.04 335.357 269.471C335.903 268.82 336.332 268.524 336.671 268.485L336.672 268.483ZM76.1615 287.183C107.411 318.003 139.673 348.152 175.703 373.422C175.743 377.862 170.103 385.502 165.244 381.943C133.594 359.313 94.8335 346.143 68.5035 316.473C61.5535 306.273 70.6329 295.574 76.1629 287.184L76.1615 287.183ZM146.36 289.428C142.27 289.352 137.667 292.813 134.621 294.733C128.031 305.033 142.741 318.512 152.161 310.142C158.321 303.682 149.801 297.422 150.201 290.872C149.029 289.872 147.722 289.454 146.359 289.428L146.36 289.428ZM143.122 295.033C146.702 297.293 153.622 304.283 146.242 306.413C137.192 310.153 135.662 297.274 143.122 295.033ZM196.78 336.527C194.138 336.516 191.681 337.363 190.202 339.502C188.572 347.782 194.113 357.342 202.743 358.652C209.493 354.842 208.532 346.112 206.202 339.902C203.879 337.973 200.177 336.541 196.78 336.527H196.78ZM197.483 341.891C202.325 341.765 205.301 346.895 203.761 351.733C199.241 353.523 191.992 345.314 195.302 342.284C196.062 342.035 196.791 341.909 197.483 341.891L197.483 341.891ZM84.2031 362.621C82.4491 362.575 80.674 362.695 78.9078 362.982C60.3768 363.122 29.5478 365.442 26.7478 388.702C27.2878 391.532 30.1675 393.072 31.9275 395.162C22.9375 413.312 10.8675 430.773 8.07753 451.273C8.24753 460.103 5.18722 471.522 11.2072 478.862C21.7472 480.362 32.3582 475.203 42.9982 474.873C60.6782 471.563 79.1692 463.972 88.8392 447.862C92.8292 444.902 99.5382 447.782 103.478 443.552C124.868 425.782 120.759 391.821 103.389 372.611C99.0097 366.152 91.8041 362.822 84.2031 362.621V362.621ZM78.3906 370.918C106.296 370.836 119.483 416.193 101.249 435.402C96.0786 443.272 87.1186 426.923 83.8486 438.843C70.9886 463.913 40.8986 467.773 15.9686 470.723C14.8386 444.503 26.6676 419.663 40.1276 397.903C43.3276 392.873 38.7285 389.403 35.2885 386.694C42.3285 373.604 59.4985 373.143 72.6185 371.563C74.6047 371.132 76.53 370.925 78.3904 370.919L78.3906 370.918ZM73.6531 382.338C63.3831 382.596 53.7571 391.069 50.2481 400.361C45.7281 414.011 62.5481 422.381 73.9481 422.061C94.1781 423.021 100.318 383.622 78.0778 382.752C76.6003 382.432 75.12 382.301 73.6528 382.338L73.6531 382.338ZM70.5297 387.029C74.7364 386.978 77.3513 393.04 81.9187 389.112C95.1587 397.432 82.6084 424.493 66.3987 416.073C50.2787 414.273 55.3887 389.983 68.619 387.473C69.2953 387.169 69.929 387.036 70.5299 387.029L70.5297 387.029Z" fill="black"/>
<path d="M330.93 20.848C326.69 20.7386 322.43 21.7365 318.255 24.3089C271.075 41.3189 233.745 75.1889 193.255 103.259C165.345 126.909 141.476 154.899 118.286 183.079C161.066 242.769 233.956 268.47 286.976 317.019C329.496 264.609 369.767 210.249 406.616 153.609C412.456 139.499 424.826 121.32 413.986 106.95C399.426 83.3499 385.806 59.0199 365.906 39.1299C356.226 31.4719 343.666 21.1769 330.936 20.8479L330.93 20.848ZM283.486 78.228C312.289 78.5675 343.228 90.7 358.045 116.13C365.505 142.59 362.744 173.25 347.804 196.8C334.824 214.93 316.534 228.73 296.804 238.77C259.514 253.67 214.275 229.11 202.095 191.87C187.445 143.7 223.025 83.06 274.635 78.5C277.549 78.2844 280.505 78.193 283.485 78.2281L283.486 78.228ZM283.844 104.259C282.64 104.256 281.352 104.464 279.986 104.92C291.096 116.65 275.445 129.2 265.175 134.2C271.005 134.79 280.165 128.76 287.205 128.48C299.149 123.939 295.481 104.287 283.844 104.26L283.844 104.259ZM269.866 105.459C239.776 111.609 220.096 143.65 217.496 172.64C214.066 181.84 232.156 191.09 232.026 178.77C229.306 154.13 248.336 135.629 268.896 126.009C278.406 123.119 283.936 105.949 269.866 105.459L269.866 105.459ZM154.196 124.969C143.736 138.139 126.947 144.428 117.637 158.658C108.937 171.108 98.1568 182.049 89.9668 194.839C92.2068 196.649 92.8965 199.358 92.2465 202.108C112.837 175.428 134.018 149.069 158.038 125.369C156.758 125.189 155.477 125.029 154.197 124.969L154.196 124.969ZM259.626 137.799C247.906 144.759 238.166 156.45 237.606 170.59C235.416 176.32 238.846 187.459 230.776 189.329C223.526 189.939 221.366 191.7 229.156 193.84C244.126 190.52 240.986 170.97 244.526 159.57C246.766 150.5 254.916 145.23 259.626 137.8V137.799ZM247.663 197.754C246.946 197.785 246.187 197.91 245.386 198.14C238.976 202.14 246.626 215.29 252.966 211.17C257.416 205.832 254.588 197.455 247.663 197.754V197.754ZM98.2828 247.66C96.88 247.609 95.3288 247.901 93.65 248.629C102.6 250.709 105.56 260.95 99.0001 267.34C110.664 265.17 108.103 248.016 98.2828 247.66V247.66ZM187.131 252.869C210.991 274.299 239.631 289.079 265.931 307.089C242.391 285.659 213.471 270.659 187.131 252.869ZM92.7468 253.913C91.884 253.84 91.0274 253.99 90.2812 254.44C85.7912 256.99 91.8309 265.389 95.7609 260.909C100.335 258.715 96.4859 254.23 92.7468 253.913V253.913ZM336.657 268.493C336.317 268.532 335.888 268.829 335.343 269.479C307.903 305.049 280.963 341.34 249.093 373.139C250.233 375.409 252.362 377.009 254.722 377.839C256.382 374.969 258.622 372.529 260.702 369.989C265.402 361.249 274.642 356.188 281.022 348.808C297.032 321.678 319.282 299.389 338.242 274.589C337.917 272.989 338.127 268.324 336.656 268.492L336.657 268.493ZM151.167 290.803C150.851 290.807 150.527 290.829 150.192 290.87C149.792 297.42 158.311 303.68 152.151 310.14C161.616 307.854 160.954 290.674 151.167 290.802L151.167 290.803ZM143.112 295.031C135.652 297.271 137.182 310.151 146.232 306.411C153.612 304.281 146.692 297.292 143.112 295.031ZM206.182 339.901C208.512 346.111 209.473 354.841 202.723 358.651C214.083 361.281 217.562 341.291 206.182 339.901ZM197.463 341.89C196.772 341.909 196.042 342.034 195.282 342.283C191.972 345.313 199.222 353.523 203.742 351.733C205.282 346.894 202.305 341.764 197.463 341.89L197.463 341.89Z" fill="#FDFEFE"/>
<path d="M279.26 86.447C278.381 86.4576 277.508 86.4776 276.64 86.5095C237.36 89.0495 209.85 128.411 206.97 165.191C202.43 208.381 250.42 245.89 291.2 232.16C307.1 224.49 322.051 214.031 333.991 200.991C353.481 180.001 356.93 148.61 351.43 121.61C338.22 96.1215 306.5 86.1195 279.26 86.4465L279.26 86.447ZM269.47 100.6C273.336 100.577 277.037 101.753 279.995 104.92C294.565 100.06 300.394 123.469 287.214 128.479C280.174 128.759 271.014 134.79 265.184 134.2C263.314 135.37 261.434 136.52 259.634 137.8C254.924 145.23 246.774 150.5 244.534 159.57C240.994 170.97 244.133 190.52 229.164 193.84C222.697 192.063 223.101 190.55 227.568 189.738C219.11 189.879 211.702 182.591 213.035 173.679C213.185 145.799 230.944 118.53 254.984 104.94C259.259 102.639 264.5 100.629 269.47 100.599L269.47 100.6ZM227.568 189.739C228.629 189.721 229.705 189.593 230.784 189.33C229.552 189.433 228.482 189.573 227.568 189.739ZM154.198 124.969C117.698 126.849 78.609 125.029 45.088 141.949C29.068 149.269 33.278 169.839 37.8677 183.179C45.5677 200.929 55.6077 220.039 72.9877 229.729C79.1977 224.249 82.5374 214.369 88.2677 207.779C80.9777 211.149 75.2877 227.199 65.9377 221.249C48.9777 202.889 32.3977 176.1 39.9677 150.54C52.4477 169.45 71.0477 182.38 89.9677 194.84C98.1577 182.05 108.938 171.109 117.638 158.659C126.948 144.429 143.737 138.14 154.197 124.97L154.198 124.969ZM346.488 135.408C351.778 148.738 351.177 174.529 338.977 188.969C320.417 212.519 290.947 233.658 259.707 230.458C279.707 220.318 292.718 200.849 309.388 186.389C322.288 169.989 339.758 155.678 346.488 135.408H346.488ZM248.386 192.438C258.53 192.421 264.004 205.923 256.777 213.79C246.287 228.37 228.907 197.829 243.777 193.329C245.393 192.719 246.937 192.441 248.386 192.438V192.438ZM338.246 274.588C319.286 299.388 297.036 321.677 281.026 348.807C283.716 348.287 287.256 347.367 287.876 351.027C296.096 372.657 316.367 385.817 337.037 393.977C357.647 358.767 343.946 312.998 338.246 274.587L338.246 274.588ZM260.705 369.988C258.625 372.528 256.385 374.968 254.725 377.838C275.115 392.058 302.506 407.418 326.716 402.138C304.656 399.728 283.966 390.058 264.986 378.968C261.596 377.318 261.245 373.268 260.705 369.988L260.705 369.988Z" fill="#9AFDFD"/>
<path d="M346.49 135.41C351.78 148.74 351.18 174.53 338.98 188.97C320.42 212.52 290.95 233.66 259.71 230.46C279.71 220.32 292.72 200.85 309.39 186.39C322.29 169.99 339.76 155.68 346.49 135.41V135.41Z" fill="#08CCFA"/>
<path d="M39.97 150.54C32.4 176.1 48.9803 202.889 65.94 221.249C75.29 227.199 80.98 211.149 88.27 207.779C89.77 205.989 91.7597 204.569 92.2497 202.109C92.8997 199.359 92.21 196.65 89.97 194.84C71.05 182.38 52.45 169.45 39.97 150.54V150.54ZM284.73 348.31C283.543 348.274 282.204 348.578 281.027 348.805C274.647 356.185 265.407 361.246 260.707 369.986C261.247 373.266 261.598 377.316 264.988 378.966C283.968 390.056 304.658 399.726 326.718 402.136C331.008 401.196 335.628 398.295 337.038 393.975C316.368 385.815 296.097 372.655 287.877 351.025C287.528 348.966 286.256 348.356 284.73 348.31L284.73 348.31Z" fill="#4AB895"/>
<path d="M76.159 287.19C70.629 295.58 61.55 306.279 68.4996 316.479C94.8296 346.149 133.591 359.319 165.241 381.949C170.101 385.509 175.74 377.869 175.7 373.429C139.67 348.159 107.409 318.01 76.1586 287.19L76.159 287.19ZM84.8793 343.12C107.249 363.14 133.42 378.8 158.02 396C170.74 406.49 182.389 392.41 189.809 382.85C182.089 373.25 179.179 389.669 171.079 390.509C166.919 391.819 162.429 390.88 159.209 387.93C135.559 371.12 108.829 359.431 84.8793 343.121V343.12Z" fill="#E56739"/>
<path d="M65.375 361.35C47.862 361.152 26.919 367.534 19.341 384.378C18.061 388.268 24.0604 388.608 26.7504 388.698C29.5504 365.438 60.3794 363.118 78.9094 362.978C74.9128 361.976 70.2785 361.406 65.3754 361.35L65.375 361.35ZM78.392 370.914C76.5316 370.92 74.6064 371.127 72.6201 371.558C59.5001 373.138 42.3301 373.599 35.2901 386.689C38.7301 389.399 43.3292 392.868 40.1292 397.898C26.6692 419.658 14.8402 444.498 15.9702 470.718C40.9002 467.768 70.9902 463.908 83.8502 438.838C87.1202 426.918 96.0802 443.267 101.25 435.397C119.484 416.188 106.298 370.83 78.3922 370.913L78.392 370.914ZM103.39 372.608C120.76 391.818 124.869 425.779 103.479 443.549C99.5391 447.779 92.8301 444.898 88.8401 447.858C102.61 460.168 116.749 438.86 119.979 426.889C122.049 408.949 121.45 382.758 103.39 372.608L103.39 372.608ZM73.654 382.335C75.1212 382.298 76.6015 382.429 78.079 382.749C100.319 383.619 94.179 423.018 73.9493 422.058C63.5393 433.798 44.4783 438.409 31.0583 446.739C35.6383 431.129 39.9989 412.808 50.2493 400.358C53.7581 391.065 63.3843 382.593 73.6543 382.335L73.654 382.335ZM8.07901 451.269C3.50901 460.799 2.07961 479.079 2.86961 489.689C15.5796 483.959 31.0596 480.968 42.9996 474.869C32.3596 475.199 21.7486 480.358 11.2086 478.858C5.18861 471.518 8.24891 460.099 8.07891 451.269L8.07901 451.269Z" fill="#FA9A36"/>
<path d="M70.531 387.03C69.9301 387.037 69.2963 387.17 68.6201 387.474C55.3901 389.984 50.2801 414.274 66.3998 416.074C82.6098 424.494 95.1598 397.433 81.9198 389.113C77.3523 393.042 74.7374 386.979 70.5308 387.03L70.531 387.03ZM50.25 400.36C40 412.81 35.639 431.131 31.059 446.741C44.479 438.411 63.54 433.8 73.95 422.06C62.55 422.38 45.73 414.01 50.25 400.36V400.36Z" fill="#E9E1AC"/>
<path d="M250.372 189.042C248.834 187.293 248.167 185.643 248.368 184.092C248.57 182.54 249.662 180.893 251.645 179.15C253.033 177.93 254.467 177.307 255.948 177.284C257.429 177.26 259.009 177.82 260.687 178.965L259.836 183.069L258.512 184.233L259.506 179.476C258.066 178.601 256.771 178.238 255.622 178.385C254.492 178.516 253.403 179.042 252.358 179.961C251.637 180.595 251.064 181.179 250.638 181.712C250.231 182.23 249.894 182.847 249.627 183.561C249.362 184.241 249.357 184.98 249.612 185.779C249.867 186.577 250.39 187.427 251.183 188.329C251.88 189.122 252.859 189.508 254.118 189.487C255.396 189.45 256.748 189.188 258.174 188.701C259.599 188.215 261.033 187.737 262.475 187.268C263.934 186.784 265.333 186.576 266.672 186.645C268.029 186.699 269.112 187.185 269.92 188.104C271.505 189.906 272.235 191.645 272.11 193.321C272.004 194.981 270.869 196.761 268.706 198.663C266.94 200.216 265.243 201.085 263.616 201.269C261.972 201.436 260.304 200.938 258.61 199.774L259.082 198.784C260.726 199.927 262.234 200.407 263.606 200.223C264.981 200.005 266.443 199.215 267.993 197.852C269.723 196.331 270.71 194.872 270.953 193.476C271.213 192.064 270.599 190.511 269.109 188.817C268.412 188.024 267.424 187.646 266.147 187.683C264.887 187.704 263.535 187.966 262.091 188.468C260.666 188.955 259.232 189.432 257.79 189.901C256.349 190.37 254.95 190.577 253.593 190.524C252.254 190.455 251.18 189.961 250.372 189.042ZM278.395 188.226L288.344 179.479L268.754 168.756L277.297 190.63L276.432 191.391L266.662 166.377L290.22 179.267L279.108 189.037L278.395 188.226ZM294.992 173.633L305.644 164.267L291.405 148.073L296.78 166.453L279.215 158.743L294.191 175.776L293.357 176.462L276.717 157.537L277.528 156.824L295.092 164.533L289.718 146.153L290.505 145.413L307.169 164.365L295.682 174.417L294.992 173.633ZM313.527 141.229L305.498 148.29L306.544 132.797L297.406 140.831L312.62 158.134L323.11 148.911L323.823 149.722L312.522 159.658L295.882 140.733L307.805 130.25L306.758 145.743L312.814 140.418L313.527 141.229ZM329.104 127.533L321.075 134.593L322.121 119.1L312.983 127.135L328.197 144.438L338.687 135.215L339.4 136.026L328.099 145.962L311.459 127.037L323.382 116.554L322.335 132.047L328.391 126.722L329.104 127.533ZM338.283 103.452L338.996 104.263L332.643 109.849L348.57 127.963L347.758 128.676L331.832 110.562L325.478 116.149L324.765 115.338L338.283 103.452Z" fill="#FF0000"/>
</g>
<defs>
<clipPath id="clip0">
<rect width="433" height="493" fill="white"/>
</clipPath>
</defs>
</svg>
