<svg width="123" height="102" viewBox="0 0 123 102" fill="none" xmlns="http://www.w3.org/2000/svg">
<g clip-path="url(#clip0)">
<path d="M69.51 50.56L81.49 64.25L97.6 74.54L100.41 50.65L97.6 27.28L81.18 36.32L69.51 50.56Z" fill="#188038"/>
<path d="M0 72.32V92.68C0 97.34 3.77 101.11 8.43 101.11H28.79L33 85.72L28.79 72.32L14.82 68.11L0 72.32Z" fill="#FF3767"/>
<path d="M28.79 0H0V28.79L14.82 33L28.79 28.79L32.93 15.57L28.79 0Z" fill="#EA358C"/>
<path d="M0 72.32H28.79V28.79H0V72.32Z" fill="#75D365"/>
<path d="M115.99 12.19L97.6 27.28V74.54L116.07 89.69C118.84 91.85 122.88 89.88 122.88 86.37V15.45C122.88 11.89 118.74 9.94 115.99 12.19ZM69.51 50.56V72.33H28.79V101.12H89.18C93.84 101.12 97.61 97.35 97.61 92.69V74.54L69.51 50.56Z" fill="#FF9900"/>
<path d="M89.18 0H28.79V28.79H69.52V50.56L97.6 27.28V8.43C97.6 3.77 93.83 0 89.18 0Z" fill="#2C92CB"/>
<path d="M35.936 9.676C35.936 8.9 36.132 8.34 36.524 7.996C36.916 7.652 37.552 7.48 38.432 7.48C39.048 7.48 39.544 7.64 39.92 7.96C40.296 8.28 40.568 8.768 40.736 9.424L39.62 10.264H39.032L40.328 9.292C40.16 8.756 39.916 8.38 39.596 8.164C39.284 7.948 38.896 7.84 38.432 7.84C38.112 7.84 37.84 7.86 37.616 7.9C37.4 7.94 37.18 8.02 36.956 8.14C36.74 8.252 36.576 8.436 36.464 8.692C36.352 8.948 36.296 9.276 36.296 9.676C36.296 10.028 36.456 10.34 36.776 10.612C37.104 10.884 37.5 11.116 37.964 11.308C38.428 11.5 38.892 11.696 39.356 11.896C39.828 12.096 40.224 12.352 40.544 12.664C40.872 12.976 41.036 13.336 41.036 13.744C41.036 14.544 40.836 15.14 40.436 15.532C40.044 15.924 39.368 16.12 38.408 16.12C37.624 16.12 37.008 15.964 36.56 15.652C36.112 15.332 35.804 14.84 35.636 14.176L35.972 14.032C36.132 14.68 36.404 15.132 36.788 15.388C37.18 15.636 37.72 15.76 38.408 15.76C39.176 15.76 39.744 15.612 40.112 15.316C40.488 15.02 40.676 14.496 40.676 13.744C40.676 13.392 40.512 13.08 40.184 12.808C39.864 12.536 39.468 12.304 38.996 12.112C38.532 11.92 38.068 11.724 37.604 11.524C37.14 11.324 36.744 11.068 36.416 10.756C36.096 10.444 35.936 10.084 35.936 9.676ZM43.1306 15.64H47.5466L45.0026 8.644L42.3266 16H41.9426L45.0026 7.588L48.0626 16H43.1306V15.64ZM50.4973 15.64H55.2253V8.452L52.5253 14.236L49.8253 8.44V16L49.4653 15.988V7.588H49.8253L52.5253 13.384L55.2253 7.6L55.5853 7.588V16L50.4973 15.988V15.64ZM62.2694 11.608H58.7054L62.3774 7.96H58.3214V15.64H62.9774V16H57.9614V7.6H63.2534L59.5814 11.248H62.2694V11.608ZM69.1835 11.608H65.6195L69.2915 7.96H65.2355V15.64H69.8915V16H64.8755V7.6H70.1675L66.4955 11.248H69.1835V11.608ZM76.7816 7.6V7.96H73.9616V16H73.6016V7.96H70.7816V7.6H76.7816Z" fill="black"/>
</g>
<defs>
<clipPath id="clip0">
<rect width="122.88" height="101.11" fill="white"/>
</clipPath>
</defs>
</svg>
